# xmcd
#
# Track frame offsets:
# 150
# 15907
# 24987
# 38520
# 49180
# 70225
# 84800
# 97467
# 124557
# 150535
#
# Disc length: 2159 seconds
#
#
# Revision: 2
# Processed by: cddbd v1.5.1PL2 Copyright (c) Steve Scherf et al.
# Submitted via: FreeRIP 2.945 
#
DISCID=6b086d0a
DTITLE=Bob Dylan - Documents of Bob Dylan Vol V
DYEAR=1900
DGENRE=
TTITLE0=See that my grave is kept clean
TTITLE1=Ain't no more cane (Cane on the Brazo)
TTITLE2=Coccaine
TTITLE3=Cuckoo is a pretty bird
TTITLE4=West Texas
TTITLE5=Motherless children
TTITLE6=Handsome Molly
TTITLE7=John Brown
TTITLE8=Ballad of Hollis Brown
TTITLE9=Kindhearted woman blues
EXTD=
EXTT0=
EXTT1=
EXTT2=
EXTT3=
EXTT4=
EXTT5=
EXTT6=
EXTT7=
EXTT8=
EXTT9=
PLAYORDER=
